<mxfile host="app.diagrams.net" agent="Mozilla/5.0 (Macintosh; Intel Mac OS X 10_15_7) AppleWebKit/605.1.15 (KHTML, like Gecko) Version/18.0.1 Safari/605.1.15" version="24.8.3">
  <diagram name="Страница — 1" id="zLys1Sj3gPk-hwhnI6pH">
    <mxGraphModel dx="2765" dy="2752" grid="1" gridSize="10" guides="1" tooltips="1" connect="1" arrows="1" fold="1" page="1" pageScale="1" pageWidth="827" pageHeight="1169" math="0" shadow="0">
      <root>
        <mxCell id="0" />
        <mxCell id="1" parent="0" />
        <mxCell id="U0roXIEywcuLpYvrEmHH-12" style="edgeStyle=orthogonalEdgeStyle;rounded=0;orthogonalLoop=1;jettySize=auto;html=1;exitX=1;exitY=0.5;exitDx=0;exitDy=0;entryX=0;entryY=0.5;entryDx=0;entryDy=0;" edge="1" parent="1" source="U0roXIEywcuLpYvrEmHH-1" target="U0roXIEywcuLpYvrEmHH-5">
          <mxGeometry relative="1" as="geometry" />
        </mxCell>
        <mxCell id="U0roXIEywcuLpYvrEmHH-13" style="edgeStyle=orthogonalEdgeStyle;rounded=0;orthogonalLoop=1;jettySize=auto;html=1;exitX=1;exitY=0.5;exitDx=0;exitDy=0;entryX=0;entryY=0.5;entryDx=0;entryDy=0;" edge="1" parent="1" source="U0roXIEywcuLpYvrEmHH-1" target="U0roXIEywcuLpYvrEmHH-6">
          <mxGeometry relative="1" as="geometry" />
        </mxCell>
        <mxCell id="U0roXIEywcuLpYvrEmHH-14" style="edgeStyle=orthogonalEdgeStyle;rounded=0;orthogonalLoop=1;jettySize=auto;html=1;exitX=1;exitY=0.5;exitDx=0;exitDy=0;entryX=0;entryY=0.5;entryDx=0;entryDy=0;" edge="1" parent="1" source="U0roXIEywcuLpYvrEmHH-1" target="U0roXIEywcuLpYvrEmHH-3">
          <mxGeometry relative="1" as="geometry" />
        </mxCell>
        <mxCell id="U0roXIEywcuLpYvrEmHH-15" style="edgeStyle=orthogonalEdgeStyle;rounded=0;orthogonalLoop=1;jettySize=auto;html=1;exitX=1;exitY=0.5;exitDx=0;exitDy=0;entryX=0;entryY=0.5;entryDx=0;entryDy=0;" edge="1" parent="1" source="U0roXIEywcuLpYvrEmHH-1" target="U0roXIEywcuLpYvrEmHH-2">
          <mxGeometry relative="1" as="geometry" />
        </mxCell>
        <mxCell id="U0roXIEywcuLpYvrEmHH-1" value="Начало" style="rounded=0;whiteSpace=wrap;html=1;fillColor=#CCFFCC;" vertex="1" parent="1">
          <mxGeometry x="160" y="440" width="120" height="60" as="geometry" />
        </mxCell>
        <mxCell id="U0roXIEywcuLpYvrEmHH-20" style="edgeStyle=orthogonalEdgeStyle;rounded=0;orthogonalLoop=1;jettySize=auto;html=1;exitX=1;exitY=0.5;exitDx=0;exitDy=0;entryX=0;entryY=0.5;entryDx=0;entryDy=0;" edge="1" parent="1" source="U0roXIEywcuLpYvrEmHH-2" target="U0roXIEywcuLpYvrEmHH-16">
          <mxGeometry relative="1" as="geometry" />
        </mxCell>
        <mxCell id="U0roXIEywcuLpYvrEmHH-2" value="Проработка структуры сайта&lt;div&gt;(68,33ч)&lt;/div&gt;" style="rounded=0;whiteSpace=wrap;html=1;" vertex="1" parent="1">
          <mxGeometry x="340" y="260" width="120" height="60" as="geometry" />
        </mxCell>
        <mxCell id="U0roXIEywcuLpYvrEmHH-19" style="edgeStyle=orthogonalEdgeStyle;rounded=0;orthogonalLoop=1;jettySize=auto;html=1;exitX=1;exitY=0.5;exitDx=0;exitDy=0;entryX=0;entryY=0.5;entryDx=0;entryDy=0;" edge="1" parent="1" source="U0roXIEywcuLpYvrEmHH-3" target="U0roXIEywcuLpYvrEmHH-16">
          <mxGeometry relative="1" as="geometry" />
        </mxCell>
        <mxCell id="U0roXIEywcuLpYvrEmHH-3" value="Реализовать дизайн&lt;div&gt;(34ч)&lt;/div&gt;" style="rounded=0;whiteSpace=wrap;html=1;" vertex="1" parent="1">
          <mxGeometry x="340" y="380" width="120" height="60" as="geometry" />
        </mxCell>
        <mxCell id="U0roXIEywcuLpYvrEmHH-18" style="edgeStyle=orthogonalEdgeStyle;rounded=0;orthogonalLoop=1;jettySize=auto;html=1;exitX=1;exitY=0.5;exitDx=0;exitDy=0;entryX=0;entryY=0.5;entryDx=0;entryDy=0;" edge="1" parent="1" source="U0roXIEywcuLpYvrEmHH-5" target="U0roXIEywcuLpYvrEmHH-16">
          <mxGeometry relative="1" as="geometry" />
        </mxCell>
        <mxCell id="U0roXIEywcuLpYvrEmHH-5" value="Выбор технологий&lt;div&gt;(44ч)&lt;/div&gt;" style="rounded=0;whiteSpace=wrap;html=1;" vertex="1" parent="1">
          <mxGeometry x="340" y="500" width="120" height="60" as="geometry" />
        </mxCell>
        <mxCell id="U0roXIEywcuLpYvrEmHH-17" style="edgeStyle=orthogonalEdgeStyle;rounded=0;orthogonalLoop=1;jettySize=auto;html=1;exitX=1;exitY=0.5;exitDx=0;exitDy=0;entryX=0;entryY=0.5;entryDx=0;entryDy=0;" edge="1" parent="1" source="U0roXIEywcuLpYvrEmHH-6" target="U0roXIEywcuLpYvrEmHH-16">
          <mxGeometry relative="1" as="geometry" />
        </mxCell>
        <mxCell id="U0roXIEywcuLpYvrEmHH-6" value="Аренда хостинга&lt;div&gt;(44ч)&lt;/div&gt;" style="rounded=0;whiteSpace=wrap;html=1;" vertex="1" parent="1">
          <mxGeometry x="340" y="620" width="120" height="60" as="geometry" />
        </mxCell>
        <mxCell id="U0roXIEywcuLpYvrEmHH-56" style="edgeStyle=orthogonalEdgeStyle;rounded=0;orthogonalLoop=1;jettySize=auto;html=1;exitX=1;exitY=0.5;exitDx=0;exitDy=0;entryX=0;entryY=0.5;entryDx=0;entryDy=0;" edge="1" parent="1" source="U0roXIEywcuLpYvrEmHH-8" target="U0roXIEywcuLpYvrEmHH-51">
          <mxGeometry relative="1" as="geometry" />
        </mxCell>
        <mxCell id="U0roXIEywcuLpYvrEmHH-57" style="edgeStyle=orthogonalEdgeStyle;rounded=0;orthogonalLoop=1;jettySize=auto;html=1;exitX=1;exitY=0.5;exitDx=0;exitDy=0;entryX=0;entryY=0.5;entryDx=0;entryDy=0;" edge="1" parent="1" source="U0roXIEywcuLpYvrEmHH-8" target="U0roXIEywcuLpYvrEmHH-53">
          <mxGeometry relative="1" as="geometry" />
        </mxCell>
        <mxCell id="U0roXIEywcuLpYvrEmHH-58" style="edgeStyle=orthogonalEdgeStyle;rounded=0;orthogonalLoop=1;jettySize=auto;html=1;exitX=1;exitY=0.5;exitDx=0;exitDy=0;entryX=0;entryY=0.5;entryDx=0;entryDy=0;" edge="1" parent="1" source="U0roXIEywcuLpYvrEmHH-8" target="U0roXIEywcuLpYvrEmHH-54">
          <mxGeometry relative="1" as="geometry" />
        </mxCell>
        <mxCell id="U0roXIEywcuLpYvrEmHH-59" style="edgeStyle=orthogonalEdgeStyle;rounded=0;orthogonalLoop=1;jettySize=auto;html=1;exitX=1;exitY=0.5;exitDx=0;exitDy=0;entryX=0;entryY=0.5;entryDx=0;entryDy=0;" edge="1" parent="1" source="U0roXIEywcuLpYvrEmHH-8" target="U0roXIEywcuLpYvrEmHH-55">
          <mxGeometry relative="1" as="geometry" />
        </mxCell>
        <mxCell id="U0roXIEywcuLpYvrEmHH-83" style="edgeStyle=orthogonalEdgeStyle;rounded=0;orthogonalLoop=1;jettySize=auto;html=1;entryX=0;entryY=0.5;entryDx=0;entryDy=0;exitX=1;exitY=0.5;exitDx=0;exitDy=0;" edge="1" parent="1" source="U0roXIEywcuLpYvrEmHH-8" target="U0roXIEywcuLpYvrEmHH-73">
          <mxGeometry relative="1" as="geometry">
            <mxPoint x="1060" y="120" as="sourcePoint" />
          </mxGeometry>
        </mxCell>
        <mxCell id="U0roXIEywcuLpYvrEmHH-105" style="edgeStyle=orthogonalEdgeStyle;rounded=0;orthogonalLoop=1;jettySize=auto;html=1;exitX=1;exitY=0.5;exitDx=0;exitDy=0;entryX=0;entryY=0.5;entryDx=0;entryDy=0;" edge="1" parent="1" source="U0roXIEywcuLpYvrEmHH-8" target="U0roXIEywcuLpYvrEmHH-104">
          <mxGeometry relative="1" as="geometry" />
        </mxCell>
        <mxCell id="U0roXIEywcuLpYvrEmHH-8" value="Создание компонентов сайта" style="rounded=0;whiteSpace=wrap;html=1;" vertex="1" parent="1">
          <mxGeometry x="900" y="130" width="120" height="60" as="geometry" />
        </mxCell>
        <mxCell id="U0roXIEywcuLpYvrEmHH-88" style="edgeStyle=orthogonalEdgeStyle;rounded=0;orthogonalLoop=1;jettySize=auto;html=1;exitX=1;exitY=0.5;exitDx=0;exitDy=0;entryX=0;entryY=0.5;entryDx=0;entryDy=0;" edge="1" parent="1" source="U0roXIEywcuLpYvrEmHH-9" target="U0roXIEywcuLpYvrEmHH-87">
          <mxGeometry relative="1" as="geometry" />
        </mxCell>
        <mxCell id="U0roXIEywcuLpYvrEmHH-97" style="edgeStyle=orthogonalEdgeStyle;rounded=0;orthogonalLoop=1;jettySize=auto;html=1;exitX=1;exitY=0.5;exitDx=0;exitDy=0;entryX=0;entryY=0.5;entryDx=0;entryDy=0;" edge="1" parent="1" source="U0roXIEywcuLpYvrEmHH-9" target="U0roXIEywcuLpYvrEmHH-96">
          <mxGeometry relative="1" as="geometry" />
        </mxCell>
        <mxCell id="U0roXIEywcuLpYvrEmHH-102" style="edgeStyle=orthogonalEdgeStyle;rounded=0;orthogonalLoop=1;jettySize=auto;html=1;exitX=1;exitY=0.5;exitDx=0;exitDy=0;entryX=0;entryY=0.5;entryDx=0;entryDy=0;" edge="1" parent="1" source="U0roXIEywcuLpYvrEmHH-9" target="U0roXIEywcuLpYvrEmHH-101">
          <mxGeometry relative="1" as="geometry" />
        </mxCell>
        <mxCell id="U0roXIEywcuLpYvrEmHH-9" value="Создание дополнительных компонентов сайта" style="rounded=0;whiteSpace=wrap;html=1;" vertex="1" parent="1">
          <mxGeometry x="900" y="440" width="120" height="60" as="geometry" />
        </mxCell>
        <mxCell id="U0roXIEywcuLpYvrEmHH-111" style="edgeStyle=orthogonalEdgeStyle;rounded=0;orthogonalLoop=1;jettySize=auto;html=1;exitX=1;exitY=0.5;exitDx=0;exitDy=0;entryX=0;entryY=0.5;entryDx=0;entryDy=0;" edge="1" parent="1" source="U0roXIEywcuLpYvrEmHH-10" target="U0roXIEywcuLpYvrEmHH-110">
          <mxGeometry relative="1" as="geometry" />
        </mxCell>
        <mxCell id="U0roXIEywcuLpYvrEmHH-10" value="Проектирование и настройка БД" style="rounded=0;whiteSpace=wrap;html=1;" vertex="1" parent="1">
          <mxGeometry x="900" y="750" width="120" height="60" as="geometry" />
        </mxCell>
        <mxCell id="U0roXIEywcuLpYvrEmHH-39" style="edgeStyle=orthogonalEdgeStyle;rounded=0;orthogonalLoop=1;jettySize=auto;html=1;exitX=1;exitY=0.5;exitDx=0;exitDy=0;entryX=0;entryY=0.5;entryDx=0;entryDy=0;" edge="1" parent="1" target="U0roXIEywcuLpYvrEmHH-35">
          <mxGeometry relative="1" as="geometry">
            <mxPoint x="710" y="470" as="sourcePoint" />
            <mxPoint x="1350" y="950" as="targetPoint" />
            <Array as="points">
              <mxPoint x="800" y="470" />
              <mxPoint x="800" y="1000" />
            </Array>
          </mxGeometry>
        </mxCell>
        <mxCell id="U0roXIEywcuLpYvrEmHH-40" style="edgeStyle=orthogonalEdgeStyle;rounded=0;orthogonalLoop=1;jettySize=auto;html=1;exitX=1;exitY=0.5;exitDx=0;exitDy=0;entryX=0;entryY=0.5;entryDx=0;entryDy=0;" edge="1" parent="1" source="U0roXIEywcuLpYvrEmHH-16" target="U0roXIEywcuLpYvrEmHH-34">
          <mxGeometry relative="1" as="geometry">
            <Array as="points">
              <mxPoint x="800" y="470" />
              <mxPoint x="800" y="930" />
            </Array>
          </mxGeometry>
        </mxCell>
        <mxCell id="U0roXIEywcuLpYvrEmHH-41" style="edgeStyle=orthogonalEdgeStyle;rounded=0;orthogonalLoop=1;jettySize=auto;html=1;exitX=1;exitY=0.5;exitDx=0;exitDy=0;entryX=0;entryY=0.5;entryDx=0;entryDy=0;" edge="1" parent="1" source="U0roXIEywcuLpYvrEmHH-16" target="U0roXIEywcuLpYvrEmHH-33">
          <mxGeometry relative="1" as="geometry">
            <Array as="points">
              <mxPoint x="800" y="470" />
              <mxPoint x="800" y="860" />
            </Array>
          </mxGeometry>
        </mxCell>
        <mxCell id="U0roXIEywcuLpYvrEmHH-46" style="edgeStyle=orthogonalEdgeStyle;rounded=0;orthogonalLoop=1;jettySize=auto;html=1;exitX=1;exitY=0.5;exitDx=0;exitDy=0;entryX=0;entryY=0.5;entryDx=0;entryDy=0;" edge="1" parent="1" source="U0roXIEywcuLpYvrEmHH-16" target="U0roXIEywcuLpYvrEmHH-10">
          <mxGeometry relative="1" as="geometry" />
        </mxCell>
        <mxCell id="U0roXIEywcuLpYvrEmHH-47" style="edgeStyle=orthogonalEdgeStyle;rounded=0;orthogonalLoop=1;jettySize=auto;html=1;exitX=1;exitY=0.5;exitDx=0;exitDy=0;entryX=0;entryY=0.5;entryDx=0;entryDy=0;" edge="1" parent="1" source="U0roXIEywcuLpYvrEmHH-16" target="U0roXIEywcuLpYvrEmHH-8">
          <mxGeometry relative="1" as="geometry" />
        </mxCell>
        <mxCell id="U0roXIEywcuLpYvrEmHH-48" style="edgeStyle=orthogonalEdgeStyle;rounded=0;orthogonalLoop=1;jettySize=auto;html=1;exitX=1;exitY=0.5;exitDx=0;exitDy=0;" edge="1" parent="1" source="U0roXIEywcuLpYvrEmHH-16" target="U0roXIEywcuLpYvrEmHH-9">
          <mxGeometry relative="1" as="geometry" />
        </mxCell>
        <mxCell id="U0roXIEywcuLpYvrEmHH-16" value="Подготовительная&amp;nbsp;&lt;div&gt;основа для разработки&lt;/div&gt;" style="rounded=1;whiteSpace=wrap;html=1;" vertex="1" parent="1">
          <mxGeometry x="580" y="440" width="120" height="60" as="geometry" />
        </mxCell>
        <mxCell id="U0roXIEywcuLpYvrEmHH-21" value="Аналитик/Frontend" style="text;html=1;align=center;verticalAlign=middle;whiteSpace=wrap;rounded=0;" vertex="1" parent="1">
          <mxGeometry x="190" y="330" width="60" height="30" as="geometry" />
        </mxCell>
        <mxCell id="U0roXIEywcuLpYvrEmHH-22" value="DevOps" style="text;html=1;align=center;verticalAlign=middle;whiteSpace=wrap;rounded=0;" vertex="1" parent="1">
          <mxGeometry x="190" y="540" width="60" height="30" as="geometry" />
        </mxCell>
        <mxCell id="U0roXIEywcuLpYvrEmHH-24" value="Backend" style="text;html=1;align=center;verticalAlign=middle;whiteSpace=wrap;rounded=0;" vertex="1" parent="1">
          <mxGeometry x="190" y="610" width="60" height="30" as="geometry" />
        </mxCell>
        <mxCell id="U0roXIEywcuLpYvrEmHH-25" value="" style="fontSize=12;html=1;endArrow=blockThin;endFill=1;startArrow=none;rounded=0;startFill=0;dashed=1;exitX=1;exitY=0.5;exitDx=0;exitDy=0;entryX=0;entryY=1;entryDx=0;entryDy=0;" edge="1" parent="1" source="U0roXIEywcuLpYvrEmHH-21" target="U0roXIEywcuLpYvrEmHH-2">
          <mxGeometry width="60" height="60" relative="1" as="geometry">
            <mxPoint x="300" y="210" as="sourcePoint" />
            <mxPoint x="360" y="150" as="targetPoint" />
          </mxGeometry>
        </mxCell>
        <mxCell id="U0roXIEywcuLpYvrEmHH-26" value="" style="fontSize=12;html=1;endArrow=blockThin;endFill=1;startArrow=none;rounded=0;startFill=0;dashed=1;exitX=1;exitY=0.5;exitDx=0;exitDy=0;entryX=0;entryY=0;entryDx=0;entryDy=0;" edge="1" parent="1" source="U0roXIEywcuLpYvrEmHH-21" target="U0roXIEywcuLpYvrEmHH-3">
          <mxGeometry width="60" height="60" relative="1" as="geometry">
            <mxPoint x="260" y="375" as="sourcePoint" />
            <mxPoint x="350" y="300" as="targetPoint" />
          </mxGeometry>
        </mxCell>
        <mxCell id="U0roXIEywcuLpYvrEmHH-27" value="" style="fontSize=12;html=1;endArrow=blockThin;endFill=1;startArrow=none;rounded=0;startFill=0;dashed=1;exitX=1;exitY=0.5;exitDx=0;exitDy=0;entryX=0;entryY=1;entryDx=0;entryDy=0;" edge="1" parent="1" source="U0roXIEywcuLpYvrEmHH-22" target="U0roXIEywcuLpYvrEmHH-5">
          <mxGeometry width="60" height="60" relative="1" as="geometry">
            <mxPoint x="260" y="355" as="sourcePoint" />
            <mxPoint x="350" y="390" as="targetPoint" />
          </mxGeometry>
        </mxCell>
        <mxCell id="U0roXIEywcuLpYvrEmHH-28" value="" style="fontSize=12;html=1;endArrow=blockThin;endFill=1;startArrow=none;rounded=0;startFill=0;dashed=1;exitX=1;exitY=0.5;exitDx=0;exitDy=0;entryX=0;entryY=0;entryDx=0;entryDy=0;" edge="1" parent="1" source="U0roXIEywcuLpYvrEmHH-24" target="U0roXIEywcuLpYvrEmHH-6">
          <mxGeometry width="60" height="60" relative="1" as="geometry">
            <mxPoint x="260" y="565" as="sourcePoint" />
            <mxPoint x="350" y="570" as="targetPoint" />
          </mxGeometry>
        </mxCell>
        <mxCell id="U0roXIEywcuLpYvrEmHH-30" value="Конец" style="rounded=0;whiteSpace=wrap;html=1;fillColor=#f8cecc;strokeColor=#b85450;" vertex="1" parent="1">
          <mxGeometry x="1940" y="440" width="120" height="60" as="geometry" />
        </mxCell>
        <mxCell id="U0roXIEywcuLpYvrEmHH-42" style="edgeStyle=orthogonalEdgeStyle;rounded=0;orthogonalLoop=1;jettySize=auto;html=1;exitX=1;exitY=0.5;exitDx=0;exitDy=0;entryX=0.5;entryY=0;entryDx=0;entryDy=0;" edge="1" parent="1" source="U0roXIEywcuLpYvrEmHH-31" target="U0roXIEywcuLpYvrEmHH-30">
          <mxGeometry relative="1" as="geometry">
            <Array as="points">
              <mxPoint x="2000" y="70" />
            </Array>
          </mxGeometry>
        </mxCell>
        <mxCell id="U0roXIEywcuLpYvrEmHH-43" style="edgeStyle=orthogonalEdgeStyle;rounded=0;orthogonalLoop=1;jettySize=auto;html=1;exitX=0.5;exitY=1;exitDx=0;exitDy=0;" edge="1" parent="1" source="U0roXIEywcuLpYvrEmHH-31" target="U0roXIEywcuLpYvrEmHH-32">
          <mxGeometry relative="1" as="geometry">
            <Array as="points" />
          </mxGeometry>
        </mxCell>
        <mxCell id="U0roXIEywcuLpYvrEmHH-31" value="Интеграционное тестирование&lt;div&gt;(30ч)&lt;/div&gt;" style="rounded=0;whiteSpace=wrap;html=1;" vertex="1" parent="1">
          <mxGeometry x="1710" y="40" width="120" height="60" as="geometry" />
        </mxCell>
        <mxCell id="U0roXIEywcuLpYvrEmHH-44" style="edgeStyle=orthogonalEdgeStyle;rounded=0;orthogonalLoop=1;jettySize=auto;html=1;exitX=1;exitY=0.5;exitDx=0;exitDy=0;entryX=0;entryY=0.5;entryDx=0;entryDy=0;" edge="1" parent="1" source="U0roXIEywcuLpYvrEmHH-32" target="U0roXIEywcuLpYvrEmHH-30">
          <mxGeometry relative="1" as="geometry" />
        </mxCell>
        <mxCell id="U0roXIEywcuLpYvrEmHH-32" value="Функциональное тестирование (72,5ч)&amp;nbsp;" style="rounded=0;whiteSpace=wrap;html=1;" vertex="1" parent="1">
          <mxGeometry x="1710" y="440" width="120" height="60" as="geometry" />
        </mxCell>
        <mxCell id="U0roXIEywcuLpYvrEmHH-36" style="edgeStyle=orthogonalEdgeStyle;rounded=0;orthogonalLoop=1;jettySize=auto;html=1;exitX=1;exitY=0.5;exitDx=0;exitDy=0;entryX=0.5;entryY=1;entryDx=0;entryDy=0;" edge="1" parent="1" source="U0roXIEywcuLpYvrEmHH-33" target="U0roXIEywcuLpYvrEmHH-30">
          <mxGeometry relative="1" as="geometry" />
        </mxCell>
        <mxCell id="U0roXIEywcuLpYvrEmHH-33" value="Настройка и выбор окружения(20ч)" style="rounded=1;whiteSpace=wrap;html=1;" vertex="1" parent="1">
          <mxGeometry x="1241" y="830" width="120" height="60" as="geometry" />
        </mxCell>
        <mxCell id="U0roXIEywcuLpYvrEmHH-37" style="edgeStyle=orthogonalEdgeStyle;rounded=0;orthogonalLoop=1;jettySize=auto;html=1;exitX=1;exitY=0.5;exitDx=0;exitDy=0;entryX=0.5;entryY=1;entryDx=0;entryDy=0;" edge="1" parent="1" source="U0roXIEywcuLpYvrEmHH-34" target="U0roXIEywcuLpYvrEmHH-30">
          <mxGeometry relative="1" as="geometry">
            <mxPoint x="1940" y="490" as="targetPoint" />
          </mxGeometry>
        </mxCell>
        <mxCell id="U0roXIEywcuLpYvrEmHH-34" value="SSL сертификат(10ч)" style="rounded=1;whiteSpace=wrap;html=1;" vertex="1" parent="1">
          <mxGeometry x="1241" y="900" width="120" height="60" as="geometry" />
        </mxCell>
        <mxCell id="U0roXIEywcuLpYvrEmHH-38" style="edgeStyle=orthogonalEdgeStyle;rounded=0;orthogonalLoop=1;jettySize=auto;html=1;exitX=1;exitY=0.5;exitDx=0;exitDy=0;entryX=0.5;entryY=1;entryDx=0;entryDy=0;" edge="1" parent="1" source="U0roXIEywcuLpYvrEmHH-35" target="U0roXIEywcuLpYvrEmHH-30">
          <mxGeometry relative="1" as="geometry">
            <mxPoint x="1940" y="500" as="targetPoint" />
          </mxGeometry>
        </mxCell>
        <mxCell id="U0roXIEywcuLpYvrEmHH-45" style="edgeStyle=orthogonalEdgeStyle;rounded=0;orthogonalLoop=1;jettySize=auto;html=1;exitX=1;exitY=0.5;exitDx=0;exitDy=0;entryX=0.5;entryY=1;entryDx=0;entryDy=0;" edge="1" parent="1" source="U0roXIEywcuLpYvrEmHH-35" target="U0roXIEywcuLpYvrEmHH-32">
          <mxGeometry relative="1" as="geometry" />
        </mxCell>
        <mxCell id="U0roXIEywcuLpYvrEmHH-35" value="Конфигурации(20ч)" style="rounded=1;whiteSpace=wrap;html=1;" vertex="1" parent="1">
          <mxGeometry x="1241" y="970" width="120" height="60" as="geometry" />
        </mxCell>
        <mxCell id="U0roXIEywcuLpYvrEmHH-65" style="edgeStyle=orthogonalEdgeStyle;rounded=0;orthogonalLoop=1;jettySize=auto;html=1;exitX=1;exitY=0.5;exitDx=0;exitDy=0;entryX=0;entryY=0.5;entryDx=0;entryDy=0;" edge="1" parent="1" source="U0roXIEywcuLpYvrEmHH-51" target="U0roXIEywcuLpYvrEmHH-61">
          <mxGeometry relative="1" as="geometry" />
        </mxCell>
        <mxCell id="U0roXIEywcuLpYvrEmHH-51" value="Главная страница&lt;div&gt;(34ч)&lt;/div&gt;" style="rounded=1;whiteSpace=wrap;html=1;" vertex="1" parent="1">
          <mxGeometry x="1241" y="-70" width="120" height="60" as="geometry" />
        </mxCell>
        <mxCell id="U0roXIEywcuLpYvrEmHH-66" style="edgeStyle=orthogonalEdgeStyle;rounded=0;orthogonalLoop=1;jettySize=auto;html=1;exitX=1;exitY=0.5;exitDx=0;exitDy=0;entryX=0;entryY=0.5;entryDx=0;entryDy=0;" edge="1" parent="1" source="U0roXIEywcuLpYvrEmHH-53" target="U0roXIEywcuLpYvrEmHH-62">
          <mxGeometry relative="1" as="geometry" />
        </mxCell>
        <mxCell id="U0roXIEywcuLpYvrEmHH-53" value="Контактная страница&lt;div&gt;(15ч)&lt;/div&gt;" style="rounded=1;whiteSpace=wrap;html=1;" vertex="1" parent="1">
          <mxGeometry x="1241" y="10" width="120" height="60" as="geometry" />
        </mxCell>
        <mxCell id="U0roXIEywcuLpYvrEmHH-67" style="edgeStyle=orthogonalEdgeStyle;rounded=0;orthogonalLoop=1;jettySize=auto;html=1;exitX=1;exitY=0.5;exitDx=0;exitDy=0;" edge="1" parent="1" source="U0roXIEywcuLpYvrEmHH-54" target="U0roXIEywcuLpYvrEmHH-63">
          <mxGeometry relative="1" as="geometry" />
        </mxCell>
        <mxCell id="U0roXIEywcuLpYvrEmHH-54" value="Страница сотрудничества&lt;div&gt;(15ч)&amp;nbsp;&lt;/div&gt;" style="rounded=1;whiteSpace=wrap;html=1;" vertex="1" parent="1">
          <mxGeometry x="1241" y="90" width="120" height="60" as="geometry" />
        </mxCell>
        <mxCell id="U0roXIEywcuLpYvrEmHH-68" style="edgeStyle=orthogonalEdgeStyle;rounded=0;orthogonalLoop=1;jettySize=auto;html=1;exitX=1;exitY=0.5;exitDx=0;exitDy=0;entryX=0;entryY=0.5;entryDx=0;entryDy=0;" edge="1" parent="1" source="U0roXIEywcuLpYvrEmHH-55" target="U0roXIEywcuLpYvrEmHH-64">
          <mxGeometry relative="1" as="geometry" />
        </mxCell>
        <mxCell id="U0roXIEywcuLpYvrEmHH-55" value="Страница &quot; Все новости&quot;&lt;div&gt;(34ч)&lt;/div&gt;" style="rounded=1;whiteSpace=wrap;html=1;" vertex="1" parent="1">
          <mxGeometry x="1241" y="170" width="120" height="60" as="geometry" />
        </mxCell>
        <mxCell id="U0roXIEywcuLpYvrEmHH-69" style="edgeStyle=orthogonalEdgeStyle;rounded=0;orthogonalLoop=1;jettySize=auto;html=1;exitX=1;exitY=0.5;exitDx=0;exitDy=0;entryX=0;entryY=0.5;entryDx=0;entryDy=0;" edge="1" parent="1" source="U0roXIEywcuLpYvrEmHH-61" target="U0roXIEywcuLpYvrEmHH-31">
          <mxGeometry relative="1" as="geometry" />
        </mxCell>
        <mxCell id="U0roXIEywcuLpYvrEmHH-61" value="Модульное тестирование главной страницы&lt;div&gt;(60ч)&lt;br&gt;&lt;/div&gt;" style="rounded=1;whiteSpace=wrap;html=1;" vertex="1" parent="1">
          <mxGeometry x="1410" y="-70" width="120" height="60" as="geometry" />
        </mxCell>
        <mxCell id="U0roXIEywcuLpYvrEmHH-70" style="edgeStyle=orthogonalEdgeStyle;rounded=0;orthogonalLoop=1;jettySize=auto;html=1;exitX=1;exitY=0.5;exitDx=0;exitDy=0;entryX=0;entryY=0.5;entryDx=0;entryDy=0;" edge="1" parent="1" source="U0roXIEywcuLpYvrEmHH-62" target="U0roXIEywcuLpYvrEmHH-31">
          <mxGeometry relative="1" as="geometry">
            <mxPoint x="1660" y="250" as="targetPoint" />
          </mxGeometry>
        </mxCell>
        <mxCell id="U0roXIEywcuLpYvrEmHH-62" value="Модульное тестирование контактной страницы&lt;div&gt;(60ч)&lt;br&gt;&lt;/div&gt;" style="rounded=1;whiteSpace=wrap;html=1;" vertex="1" parent="1">
          <mxGeometry x="1410" y="5" width="120" height="70" as="geometry" />
        </mxCell>
        <mxCell id="U0roXIEywcuLpYvrEmHH-71" style="edgeStyle=orthogonalEdgeStyle;rounded=0;orthogonalLoop=1;jettySize=auto;html=1;exitX=1;exitY=0.5;exitDx=0;exitDy=0;entryX=0;entryY=0.5;entryDx=0;entryDy=0;" edge="1" parent="1" source="U0roXIEywcuLpYvrEmHH-63" target="U0roXIEywcuLpYvrEmHH-31">
          <mxGeometry relative="1" as="geometry" />
        </mxCell>
        <mxCell id="U0roXIEywcuLpYvrEmHH-63" value="Модульное тестирование&lt;div&gt;страницы сотрудничества&lt;/div&gt;&lt;div&gt;(60ч)&lt;br&gt;&lt;/div&gt;" style="rounded=1;whiteSpace=wrap;html=1;" vertex="1" parent="1">
          <mxGeometry x="1410" y="85" width="120" height="70" as="geometry" />
        </mxCell>
        <mxCell id="U0roXIEywcuLpYvrEmHH-72" style="edgeStyle=orthogonalEdgeStyle;rounded=0;orthogonalLoop=1;jettySize=auto;html=1;exitX=1;exitY=0.5;exitDx=0;exitDy=0;entryX=0;entryY=0.5;entryDx=0;entryDy=0;" edge="1" parent="1" source="U0roXIEywcuLpYvrEmHH-64" target="U0roXIEywcuLpYvrEmHH-31">
          <mxGeometry relative="1" as="geometry" />
        </mxCell>
        <mxCell id="U0roXIEywcuLpYvrEmHH-64" value="Модульное тестирование&lt;div&gt;страницы &quot;Все новости&quot;&lt;/div&gt;&lt;div&gt;(60ч)&lt;br&gt;&lt;/div&gt;" style="rounded=1;whiteSpace=wrap;html=1;" vertex="1" parent="1">
          <mxGeometry x="1410" y="165" width="120" height="70" as="geometry" />
        </mxCell>
        <mxCell id="U0roXIEywcuLpYvrEmHH-80" style="edgeStyle=orthogonalEdgeStyle;rounded=0;orthogonalLoop=1;jettySize=auto;html=1;exitX=1;exitY=0.5;exitDx=0;exitDy=0;entryX=0;entryY=0.5;entryDx=0;entryDy=0;" edge="1" parent="1" source="U0roXIEywcuLpYvrEmHH-73" target="U0roXIEywcuLpYvrEmHH-77">
          <mxGeometry relative="1" as="geometry" />
        </mxCell>
        <mxCell id="U0roXIEywcuLpYvrEmHH-73" value="Страница &quot;О редакции&quot;&lt;div&gt;(15ч)&lt;/div&gt;" style="rounded=1;whiteSpace=wrap;html=1;" vertex="1" parent="1">
          <mxGeometry x="1241" y="240" width="120" height="60" as="geometry" />
        </mxCell>
        <mxCell id="U0roXIEywcuLpYvrEmHH-86" style="edgeStyle=orthogonalEdgeStyle;rounded=0;orthogonalLoop=1;jettySize=auto;html=1;exitX=1;exitY=0.5;exitDx=0;exitDy=0;entryX=0;entryY=0.5;entryDx=0;entryDy=0;" edge="1" parent="1" source="U0roXIEywcuLpYvrEmHH-77" target="U0roXIEywcuLpYvrEmHH-31">
          <mxGeometry relative="1" as="geometry" />
        </mxCell>
        <mxCell id="U0roXIEywcuLpYvrEmHH-77" value="Модульное тестирование страницы &quot;О редакции&quot;&lt;div&gt;(60ч)&lt;br&gt;&lt;/div&gt;" style="rounded=1;whiteSpace=wrap;html=1;" vertex="1" parent="1">
          <mxGeometry x="1410" y="250" width="120" height="70" as="geometry" />
        </mxCell>
        <mxCell id="U0roXIEywcuLpYvrEmHH-94" style="edgeStyle=orthogonalEdgeStyle;rounded=0;orthogonalLoop=1;jettySize=auto;html=1;exitX=1;exitY=0.5;exitDx=0;exitDy=0;entryX=0;entryY=0.5;entryDx=0;entryDy=0;" edge="1" parent="1" source="U0roXIEywcuLpYvrEmHH-87" target="U0roXIEywcuLpYvrEmHH-93">
          <mxGeometry relative="1" as="geometry" />
        </mxCell>
        <mxCell id="U0roXIEywcuLpYvrEmHH-87" value="Система тегов и категорий(23,33ч)" style="rounded=1;whiteSpace=wrap;html=1;" vertex="1" parent="1">
          <mxGeometry x="1241" y="457.5" width="120" height="60" as="geometry" />
        </mxCell>
        <mxCell id="U0roXIEywcuLpYvrEmHH-95" style="edgeStyle=orthogonalEdgeStyle;rounded=0;orthogonalLoop=1;jettySize=auto;html=1;exitX=1;exitY=0.5;exitDx=0;exitDy=0;entryX=0;entryY=0.5;entryDx=0;entryDy=0;" edge="1" parent="1" source="U0roXIEywcuLpYvrEmHH-93" target="U0roXIEywcuLpYvrEmHH-31">
          <mxGeometry relative="1" as="geometry" />
        </mxCell>
        <mxCell id="U0roXIEywcuLpYvrEmHH-93" value="Модульное тестирование системы тегов и категорий&lt;div&gt;(60ч)&lt;br&gt;&lt;/div&gt;" style="rounded=1;whiteSpace=wrap;html=1;" vertex="1" parent="1">
          <mxGeometry x="1410" y="452.5" width="120" height="70" as="geometry" />
        </mxCell>
        <mxCell id="U0roXIEywcuLpYvrEmHH-99" style="edgeStyle=orthogonalEdgeStyle;rounded=0;orthogonalLoop=1;jettySize=auto;html=1;exitX=1;exitY=0.5;exitDx=0;exitDy=0;entryX=0;entryY=0.5;entryDx=0;entryDy=0;" edge="1" parent="1" source="U0roXIEywcuLpYvrEmHH-96" target="U0roXIEywcuLpYvrEmHH-98">
          <mxGeometry relative="1" as="geometry" />
        </mxCell>
        <mxCell id="U0roXIEywcuLpYvrEmHH-96" value="Рекламный функционал(18ч)" style="rounded=1;whiteSpace=wrap;html=1;" vertex="1" parent="1">
          <mxGeometry x="1240" y="542.5" width="120" height="60" as="geometry" />
        </mxCell>
        <mxCell id="U0roXIEywcuLpYvrEmHH-100" style="edgeStyle=orthogonalEdgeStyle;rounded=0;orthogonalLoop=1;jettySize=auto;html=1;exitX=1;exitY=0.5;exitDx=0;exitDy=0;entryX=0;entryY=0.5;entryDx=0;entryDy=0;" edge="1" parent="1" source="U0roXIEywcuLpYvrEmHH-98" target="U0roXIEywcuLpYvrEmHH-31">
          <mxGeometry relative="1" as="geometry" />
        </mxCell>
        <mxCell id="U0roXIEywcuLpYvrEmHH-98" value="Модульное тестирование рекламного функционала&lt;div&gt;(60ч)&lt;br&gt;&lt;/div&gt;" style="rounded=1;whiteSpace=wrap;html=1;" vertex="1" parent="1">
          <mxGeometry x="1410" y="535" width="120" height="75" as="geometry" />
        </mxCell>
        <mxCell id="U0roXIEywcuLpYvrEmHH-103" style="edgeStyle=orthogonalEdgeStyle;rounded=0;orthogonalLoop=1;jettySize=auto;html=1;exitX=1;exitY=0.5;exitDx=0;exitDy=0;entryX=0;entryY=0.5;entryDx=0;entryDy=0;" edge="1" parent="1" source="U0roXIEywcuLpYvrEmHH-101" target="U0roXIEywcuLpYvrEmHH-31">
          <mxGeometry relative="1" as="geometry">
            <Array as="points">
              <mxPoint x="1620" y="400" />
              <mxPoint x="1620" y="70" />
            </Array>
          </mxGeometry>
        </mxCell>
        <mxCell id="U0roXIEywcuLpYvrEmHH-101" value="Инструменты для аналитики трафика(9,67ч)" style="rounded=1;whiteSpace=wrap;html=1;" vertex="1" parent="1">
          <mxGeometry x="1241" y="370" width="120" height="60" as="geometry" />
        </mxCell>
        <mxCell id="U0roXIEywcuLpYvrEmHH-106" style="edgeStyle=orthogonalEdgeStyle;rounded=0;orthogonalLoop=1;jettySize=auto;html=1;exitX=1;exitY=0.5;exitDx=0;exitDy=0;entryX=0;entryY=0.5;entryDx=0;entryDy=0;" edge="1" parent="1" source="U0roXIEywcuLpYvrEmHH-104" target="U0roXIEywcuLpYvrEmHH-107">
          <mxGeometry relative="1" as="geometry">
            <mxPoint x="1430" y="-130" as="targetPoint" />
          </mxGeometry>
        </mxCell>
        <mxCell id="U0roXIEywcuLpYvrEmHH-104" value="Страница новости&lt;div&gt;(28,33ч)&lt;/div&gt;" style="rounded=1;whiteSpace=wrap;html=1;" vertex="1" parent="1">
          <mxGeometry x="1241" y="-160" width="120" height="60" as="geometry" />
        </mxCell>
        <mxCell id="U0roXIEywcuLpYvrEmHH-109" style="edgeStyle=orthogonalEdgeStyle;rounded=0;orthogonalLoop=1;jettySize=auto;html=1;exitX=1;exitY=0.5;exitDx=0;exitDy=0;entryX=0;entryY=0.5;entryDx=0;entryDy=0;" edge="1" parent="1" source="U0roXIEywcuLpYvrEmHH-107" target="U0roXIEywcuLpYvrEmHH-31">
          <mxGeometry relative="1" as="geometry" />
        </mxCell>
        <mxCell id="U0roXIEywcuLpYvrEmHH-107" value="Модульное тестирование отдельной новостной &amp;nbsp;страницы&lt;div&gt;(60ч)&lt;/div&gt;" style="rounded=1;whiteSpace=wrap;html=1;" vertex="1" parent="1">
          <mxGeometry x="1410" y="-175" width="120" height="90" as="geometry" />
        </mxCell>
        <mxCell id="U0roXIEywcuLpYvrEmHH-114" style="edgeStyle=orthogonalEdgeStyle;rounded=0;orthogonalLoop=1;jettySize=auto;html=1;exitX=1;exitY=0.5;exitDx=0;exitDy=0;entryX=0;entryY=0.5;entryDx=0;entryDy=0;" edge="1" parent="1" source="U0roXIEywcuLpYvrEmHH-110" target="U0roXIEywcuLpYvrEmHH-112">
          <mxGeometry relative="1" as="geometry" />
        </mxCell>
        <mxCell id="U0roXIEywcuLpYvrEmHH-116" style="edgeStyle=orthogonalEdgeStyle;rounded=0;orthogonalLoop=1;jettySize=auto;html=1;exitX=1;exitY=0.5;exitDx=0;exitDy=0;entryX=0;entryY=0.5;entryDx=0;entryDy=0;" edge="1" parent="1" source="U0roXIEywcuLpYvrEmHH-110" target="U0roXIEywcuLpYvrEmHH-115">
          <mxGeometry relative="1" as="geometry" />
        </mxCell>
        <mxCell id="U0roXIEywcuLpYvrEmHH-110" value="Проектирование API&lt;div&gt;(23,33ч)&lt;/div&gt;" style="rounded=1;whiteSpace=wrap;html=1;" vertex="1" parent="1">
          <mxGeometry x="1070" y="750" width="120" height="60" as="geometry" />
        </mxCell>
        <mxCell id="U0roXIEywcuLpYvrEmHH-121" style="edgeStyle=orthogonalEdgeStyle;rounded=0;orthogonalLoop=1;jettySize=auto;html=1;exitX=1;exitY=0.5;exitDx=0;exitDy=0;" edge="1" parent="1" source="U0roXIEywcuLpYvrEmHH-112" target="U0roXIEywcuLpYvrEmHH-118">
          <mxGeometry relative="1" as="geometry" />
        </mxCell>
        <mxCell id="U0roXIEywcuLpYvrEmHH-112" value="Получение данных для новостных страниц(19,67ч)" style="rounded=1;whiteSpace=wrap;html=1;" vertex="1" parent="1">
          <mxGeometry x="1241" y="750" width="119" height="60" as="geometry" />
        </mxCell>
        <mxCell id="U0roXIEywcuLpYvrEmHH-120" style="edgeStyle=orthogonalEdgeStyle;rounded=0;orthogonalLoop=1;jettySize=auto;html=1;exitX=1;exitY=0.5;exitDx=0;exitDy=0;" edge="1" parent="1" source="U0roXIEywcuLpYvrEmHH-115" target="U0roXIEywcuLpYvrEmHH-117">
          <mxGeometry relative="1" as="geometry" />
        </mxCell>
        <mxCell id="U0roXIEywcuLpYvrEmHH-115" value="Разработка дополнительных функций (19,67ч)" style="rounded=1;whiteSpace=wrap;html=1;" vertex="1" parent="1">
          <mxGeometry x="1241" y="670" width="120" height="60" as="geometry" />
        </mxCell>
        <mxCell id="U0roXIEywcuLpYvrEmHH-123" style="edgeStyle=orthogonalEdgeStyle;rounded=0;orthogonalLoop=1;jettySize=auto;html=1;exitX=1;exitY=0.5;exitDx=0;exitDy=0;entryX=0;entryY=0.5;entryDx=0;entryDy=0;" edge="1" parent="1" source="U0roXIEywcuLpYvrEmHH-117" target="U0roXIEywcuLpYvrEmHH-31">
          <mxGeometry relative="1" as="geometry" />
        </mxCell>
        <mxCell id="U0roXIEywcuLpYvrEmHH-117" value="Модульное тестирование разработки дополнительных функций&lt;div&gt;(10ч)&lt;br&gt;&lt;/div&gt;" style="rounded=1;whiteSpace=wrap;html=1;" vertex="1" parent="1">
          <mxGeometry x="1410" y="655" width="120" height="90" as="geometry" />
        </mxCell>
        <mxCell id="U0roXIEywcuLpYvrEmHH-122" style="edgeStyle=orthogonalEdgeStyle;rounded=0;orthogonalLoop=1;jettySize=auto;html=1;exitX=1;exitY=0.5;exitDx=0;exitDy=0;entryX=0;entryY=0.5;entryDx=0;entryDy=0;" edge="1" parent="1" source="U0roXIEywcuLpYvrEmHH-118" target="U0roXIEywcuLpYvrEmHH-31">
          <mxGeometry relative="1" as="geometry" />
        </mxCell>
        <mxCell id="U0roXIEywcuLpYvrEmHH-118" value="Модульное тестирование получения данных&lt;div&gt;(10ч)&lt;br&gt;&lt;/div&gt;" style="rounded=1;whiteSpace=wrap;html=1;" vertex="1" parent="1">
          <mxGeometry x="1410" y="750" width="120" height="60" as="geometry" />
        </mxCell>
      </root>
    </mxGraphModel>
  </diagram>
</mxfile>
